{"accessors":[{"bufferView":2,"componentType":5126,"count":10186,"max":[1.4252654314041138,1.1440613269805908,2.544123411178589],"min":[-1.4247150421142578,-1.0532052516937256,-1.1066733598709106],"type":"VEC3"},{"bufferView":2,"byteOffset":122232,"componentType":5126,"count":10186,"max":[0.9999158978462219,0.9999622106552124,0.9999419450759888],"min":[-0.9999160170555115,-0.999996542930603,-0.9999451637268066],"type":"VEC3"},{"bufferView":1,"componentType":5126,"count":10186,"max":[0.9964500069618225,0.9980400204658508],"min":[0.0019499999471008778,0.0019499999471008778],"type":"VEC2"},{"bufferView":0,"componentType":5125,"count":59880,"type":"SCALAR"},{"bufferView":2,"byteOffset":244464,"componentType":5126,"count":10186,"max":[1.4538403749465942,1.1721856594085693,2.5728611946105957],"min":[-1.4533416032791138,-1.082125186920166,-1.1351348161697388],"type":"VEC3"},{"bufferView":2,"byteOffset":366696,"componentType":5126,"count":10186,"max":[0.9999139308929443,0.9999987483024597,0.9999426603317261],"min":[-0.9999138116836548,-0.999949038028717,-0.999919056892395],"type":"VEC3"},{"bufferView":1,"byteOffset":81488,"componentType":5126,"count":10186,"max":[0.9964500069618225,0.9980400204658508],"min":[0.0019499999471008778,0.0019499999471008778],"type":"VEC2"},{"bufferView":0,"byteOffset":239520,"componentType":5125,"count":59880,"type":"SCALAR"}],"asset":{"extras":{"author":"manogna (https://sketchfab.com/manogna)","license":"CC-BY-4.0 (http://creativecommons.org/licenses/by/4.0/)","source":"https://sketchfab.com/3d-models/lazy-panda-87c2553e593c49c380412fac2d65cc1e","title":"Lazy panda"},"generator":"Sketchfab-11.53.2","version":"2.0"},"bufferViews":[{"buffer":0,"byteLength":479040,"name":"floatBufferViews","target":34963},{"buffer":0,"byteLength":162976,"byteOffset":479040,"byteStride":8,"name":"floatBufferViews","target":34962},{"buffer":0,"byteLength":488928,"byteOffset":642016,"byteStride":12,"name":"floatBufferViews","target":34962}],"buffers":[{"byteLength":1130944,"uri":"data:application/octet-stream;base64,"}],"images":[{"uri":"data:application/octet-stream;base64,"}],"materials":[{"doubleSided":true,"name":"panda","pbrMetallicRoughness":{"baseColorTexture":{"index":0},"metallicFactor":0,"roughnessFactor":0.9207483816249483}},{"name":"lambert2","pbrMetallicRoughness":{"baseColorFactor":[0,0,0,1],"metallicFactor":0.1,"roughnessFactor":0.5424701492285794}}],"meshes":[{"name":"panda001_Group7725_panda_0","primitives":[{"attributes":{"NORMAL":1,"POSITION":0,"TEXCOORD_0":2},"indices":3,"material":0,"mode":4}]},{"name":"panda001_Group7726_lambert2_0","primitives":[{"attributes":{"NORMAL":5,"POSITION":4,"TEXCOORD_0":6},"indices":7,"material":1,"mode":4}]}],"nodes":[{"children":[1],"matrix":[1,0,0,0,0,2.220446049250313e-16,-1,0,0,1,2.220446049250313e-16,0,0,0,0,1],"name":"Sketchfab_model"},{"children":[2],"matrix":[1,0,0,0,0,0,1,0,0,-1,0,0,0,0,0,1],"name":"647cad06acd54268afe804471dc92185.fbx"},{"children":[3,5],"name":"RootNode"},{"children":[4],"matrix":[1,0,0,0,0,1,0,0,0,0,1,0,0,0.9728034138679504,0,1],"name":"panda001_Group7725"},{"mesh":0,"name":"panda001_Group7725_panda_0"},{"children":[6],"matrix":[1,0,0,0,0,1,0,0,0,0,1,0,0,0.9728034138679504,0,1],"name":"panda001_Group7726"},{"mesh":1,"name":"panda001_Group7726_lambert2_0"}],"samplers":[{"magFilter":9729,"minFilter":9987,"wrapS":10497,"wrapT":10497}],"scene":0,"scenes":[{"name":"Sketchfab_Scene","nodes":[0]}],"textures":[{"sampler":0,"source":0}]}